<!DOCTYPE svg PUBLIC "-//W3C//DTD SVG 1.1//EN" "http://www.w3.org/Graphics/SVG/1.1/DTD/svg11.dtd">
<!-- Uploaded to: SVG Repo, www.svgrepo.com, Transformed by: SVG Repo Mixer Tools -->
<svg fill="#000000" height="800px" width="800px" version="1.1" id="Layer_1" xmlns="http://www.w3.org/2000/svg" xmlns:xlink="http://www.w3.org/1999/xlink" viewBox="-51.22 -51.22 614.63 614.63" xml:space="preserve">
<g id="SVGRepo_bgCarrier" stroke-width="0"/>
<g id="SVGRepo_tracerCarrier" stroke-linecap="round" stroke-linejoin="round"/>
<g id="SVGRepo_iconCarrier"> <g> <g> <path d="M459.176,0H53.016C23.816,0.016,0.088,24.176,0.088,53.872V326.88c0,29.712,23.728,53.872,52.928,53.872h188.128 l160.192,131.44v-131.44h57.84c29.184,0,52.928-24.16,52.928-53.856V53.872C512.104,24.176,488.376,0,459.176,0z M480.088,326.88 c0,12.048-9.392,21.856-20.928,21.856h-89.84v95.776l-116.752-95.776H53.016c-11.536,0.016-20.928-9.792-20.928-21.84V53.872 C32.088,41.824,41.48,32,53.016,32h406.16c11.52,0.016,20.912,9.824,20.912,21.872V326.88z"/> </g> </g> </g>
</svg>